<?xml version="1.0" encoding="UTF-8" standalone="no"?>
<!DOCTYPE svg PUBLIC "-//W3C//DTD SVG 1.1//EN"
 "http://www.w3.org/Graphics/SVG/1.1/DTD/svg11.dtd">
<!-- Generated by graphviz version 2.40.1 (20161225.0304)
 -->
<!-- Title: dependencies Pages: 1 -->
<svg width="1754pt" height="284pt"
 viewBox="0.00 0.00 1754.00 284.00" xmlns="http://www.w3.org/2000/svg" xmlns:xlink="http://www.w3.org/1999/xlink">
<g id="graph0" class="graph" transform="scale(1 1) rotate(0) translate(4 280)">
<title>dependencies</title>
<polygon fill="#ffffff" stroke="transparent" points="-4,4 -4,-280 1750,-280 1750,4 -4,4"/>
<text text-anchor="start" x="852.0091" y="-42.4" font-family="sans-serif" font-weight="bold" font-size="14.00" fill="#000000">Legend</text>
<polygon fill="#ffffb3" stroke="transparent" points="639,-10 639,-30 659,-30 659,-10 639,-10"/>
<text text-anchor="start" x="662.629" y="-15.4" font-family="sans-serif" font-size="14.00" fill="#000000"> &#160;Declarations</text>
<polygon fill="#8dd3c7" stroke="transparent" points="752,-10 752,-30 772,-30 772,-10 752,-10"/>
<text text-anchor="start" x="775.7251" y="-15.4" font-family="sans-serif" font-size="14.00" fill="#000000"> &#160;Module</text>
<polygon fill="#80b1d3" stroke="transparent" points="838,-10 838,-30 858,-30 858,-10 838,-10"/>
<text text-anchor="start" x="861.7812" y="-15.4" font-family="sans-serif" font-size="14.00" fill="#000000"> &#160;Bootstrap</text>
<polygon fill="#fdb462" stroke="transparent" points="935,-10 935,-30 955,-30 955,-10 935,-10"/>
<text text-anchor="start" x="958.6732" y="-15.4" font-family="sans-serif" font-size="14.00" fill="#000000"> &#160;Providers</text>
<polygon fill="#fb8072" stroke="transparent" points="1031,-10 1031,-30 1051,-30 1051,-10 1031,-10"/>
<text text-anchor="start" x="1054.7258" y="-15.4" font-family="sans-serif" font-size="14.00" fill="#000000"> &#160;Exports</text>
<g id="clust1" class="cluster">
<title>cluster_AppModule</title>
<polygon fill="none" stroke="#000000" stroke-dasharray="1,5" points="8,-70 8,-268 1738,-268 1738,-70 8,-70"/>
</g>
<g id="clust2" class="cluster">
<title>cluster_AppModule_declarations</title>
<polygon fill="none" stroke="#000000" points="1041,-78 1041,-130 1730,-130 1730,-78 1041,-78"/>
</g>
<g id="clust8" class="cluster">
<title>cluster_AppModule_imports</title>
<polygon fill="none" stroke="#000000" points="889,-78 889,-130 1033,-130 1033,-78 889,-78"/>
</g>
<g id="clust10" class="cluster">
<title>cluster_AppModule_bootstrap</title>
<polygon fill="none" stroke="#000000" points="899,-208 899,-260 1023,-260 1023,-208 899,-208"/>
</g>
<g id="clust11" class="cluster">
<title>cluster_AppModule_providers</title>
<polygon fill="none" stroke="#000000" points="16,-78 16,-130 881,-130 881,-78 16,-78"/>
</g>
<!-- AppComponent -->
<g id="node1" class="node">
<title>AppComponent</title>
<polygon fill="#ffffb3" stroke="#000000" points="1721.9399,-122 1616.0601,-122 1616.0601,-86 1721.9399,-86 1721.9399,-122"/>
<text text-anchor="middle" x="1669" y="-99.8" font-family="Times,serif" font-size="14.00" fill="#000000">AppComponent</text>
</g>
<!-- AppModule -->
<g id="node6" class="node">
<title>AppModule</title>
<polygon fill="#8dd3c7" stroke="#000000" points="1002.6571,-187 999.6571,-191 978.6571,-191 975.6571,-187 919.3429,-187 919.3429,-151 1002.6571,-151 1002.6571,-187"/>
<text text-anchor="middle" x="961" y="-164.8" font-family="Times,serif" font-size="14.00" fill="#000000">AppModule</text>
</g>
<!-- AppComponent&#45;&gt;AppModule -->
<g id="edge1" class="edge">
<title>AppComponent&#45;&gt;AppModule</title>
<path fill="none" stroke="#000000" d="M1669,-122.2479C1669,-145.0179 1669,-181 1669,-181 1669,-181 1012.9065,-181 1012.9065,-181"/>
<polygon fill="#000000" stroke="#000000" points="1012.9066,-177.5001 1002.9065,-181 1012.9065,-184.5001 1012.9066,-177.5001"/>
</g>
<!-- CompareComponent -->
<g id="node2" class="node">
<title>CompareComponent</title>
<polygon fill="#ffffb3" stroke="#000000" points="1598.1499,-122 1465.8501,-122 1465.8501,-86 1598.1499,-86 1598.1499,-122"/>
<text text-anchor="middle" x="1532" y="-99.8" font-family="Times,serif" font-size="14.00" fill="#000000">CompareComponent</text>
</g>
<!-- CompareComponent&#45;&gt;AppModule -->
<g id="edge2" class="edge">
<title>CompareComponent&#45;&gt;AppModule</title>
<path fill="none" stroke="#000000" d="M1532,-122.2843C1532,-143.3211 1532,-175 1532,-175 1532,-175 1012.987,-175 1012.987,-175"/>
<polygon fill="#000000" stroke="#000000" points="1012.987,-171.5001 1002.987,-175 1012.987,-178.5001 1012.987,-171.5001"/>
</g>
<!-- ContactComponent -->
<g id="node3" class="node">
<title>ContactComponent</title>
<polygon fill="#ffffb3" stroke="#000000" points="1447.3795,-122 1322.6205,-122 1322.6205,-86 1447.3795,-86 1447.3795,-122"/>
<text text-anchor="middle" x="1385" y="-99.8" font-family="Times,serif" font-size="14.00" fill="#000000">ContactComponent</text>
</g>
<!-- ContactComponent&#45;&gt;AppModule -->
<g id="edge3" class="edge">
<title>ContactComponent&#45;&gt;AppModule</title>
<path fill="none" stroke="#000000" d="M1385,-122.1061C1385,-141.3391 1385,-169 1385,-169 1385,-169 1012.8151,-169 1012.8151,-169"/>
<polygon fill="#000000" stroke="#000000" points="1012.8152,-165.5001 1002.8151,-169 1012.8151,-172.5001 1012.8152,-165.5001"/>
</g>
<!-- HomeComponent -->
<g id="node4" class="node">
<title>HomeComponent</title>
<polygon fill="#ffffb3" stroke="#000000" points="1304.5451,-122 1189.4549,-122 1189.4549,-86 1304.5451,-86 1304.5451,-122"/>
<text text-anchor="middle" x="1247" y="-99.8" font-family="Times,serif" font-size="14.00" fill="#000000">HomeComponent</text>
</g>
<!-- HomeComponent&#45;&gt;AppModule -->
<g id="edge4" class="edge">
<title>HomeComponent&#45;&gt;AppModule</title>
<path fill="none" stroke="#000000" d="M1247,-122.0225C1247,-139.3734 1247,-163 1247,-163 1247,-163 1012.8931,-163 1012.8931,-163"/>
<polygon fill="#000000" stroke="#000000" points="1012.8932,-159.5001 1002.8931,-163 1012.8931,-166.5001 1012.8932,-159.5001"/>
</g>
<!-- UploadComponent -->
<g id="node5" class="node">
<title>UploadComponent</title>
<polygon fill="#ffffb3" stroke="#000000" points="1171.045,-122 1048.955,-122 1048.955,-86 1171.045,-86 1171.045,-122"/>
<text text-anchor="middle" x="1110" y="-99.8" font-family="Times,serif" font-size="14.00" fill="#000000">UploadComponent</text>
</g>
<!-- UploadComponent&#45;&gt;AppModule -->
<g id="edge5" class="edge">
<title>UploadComponent&#45;&gt;AppModule</title>
<path fill="none" stroke="#000000" d="M1110,-122.2396C1110,-137.5706 1110,-157 1110,-157 1110,-157 1012.9013,-157 1012.9013,-157"/>
<polygon fill="#000000" stroke="#000000" points="1012.9014,-153.5001 1002.9013,-157 1012.9013,-160.5001 1012.9014,-153.5001"/>
</g>
<!-- AppComponent  -->
<g id="node8" class="node">
<title>AppComponent </title>
<polygon fill="#80b1d3" stroke="#000000" points="1015.439,-252 906.561,-252 906.561,-216 1015.439,-216 1015.439,-252"/>
<text text-anchor="middle" x="961" y="-229.8" font-family="Times,serif" font-size="14.00" fill="#000000">AppComponent </text>
</g>
<!-- AppModule&#45;&gt;AppComponent  -->
<g id="edge7" class="edge">
<title>AppModule&#45;&gt;AppComponent </title>
<path fill="none" stroke="#000000" stroke-dasharray="1,5" d="M961,-187.1061C961,-187.1061 961,-205.991 961,-205.991"/>
<polygon fill="#000000" stroke="#000000" points="957.5001,-205.9909 961,-215.991 964.5001,-205.991 957.5001,-205.9909"/>
</g>
<!-- AppRoutingModule -->
<g id="node7" class="node">
<title>AppRoutingModule</title>
<polygon fill="#8dd3c7" stroke="#000000" points="1025.2744,-122 1022.2744,-126 1001.2744,-126 998.2744,-122 896.7256,-122 896.7256,-86 1025.2744,-86 1025.2744,-122"/>
<text text-anchor="middle" x="961" y="-99.8" font-family="Times,serif" font-size="14.00" fill="#000000">AppRoutingModule</text>
</g>
<!-- AppRoutingModule&#45;&gt;AppModule -->
<g id="edge6" class="edge">
<title>AppRoutingModule&#45;&gt;AppModule</title>
<path fill="none" stroke="#000000" d="M961,-122.1061C961,-122.1061 961,-140.991 961,-140.991"/>
<polygon fill="#000000" stroke="#000000" points="957.5001,-140.9909 961,-150.991 964.5001,-140.991 957.5001,-140.9909"/>
</g>
<!-- AnimationService -->
<g id="node9" class="node">
<title>AnimationService</title>
<ellipse fill="#fdb462" stroke="#000000" cx="792" cy="-104" rx="81.0975" ry="18"/>
<text text-anchor="middle" x="792" y="-99.8" font-family="Times,serif" font-size="14.00" fill="#000000">AnimationService</text>
</g>
<!-- AnimationService&#45;&gt;AppModule -->
<g id="edge8" class="edge">
<title>AnimationService&#45;&gt;AppModule</title>
<path fill="none" stroke="#000000" d="M792,-122.2396C792,-137.5706 792,-157 792,-157 792,-157 909.2247,-157 909.2247,-157"/>
<polygon fill="#000000" stroke="#000000" points="909.2247,-160.5001 919.2247,-157 909.2247,-153.5001 909.2247,-160.5001"/>
</g>
<!-- HttpInterceptorService -->
<g id="node10" class="node">
<title>HttpInterceptorService</title>
<ellipse fill="#fdb462" stroke="#000000" cx="593" cy="-104" rx="99.5327" ry="18"/>
<text text-anchor="middle" x="593" y="-99.8" font-family="Times,serif" font-size="14.00" fill="#000000">HttpInterceptorService</text>
</g>
<!-- HttpInterceptorService&#45;&gt;AppModule -->
<g id="edge9" class="edge">
<title>HttpInterceptorService&#45;&gt;AppModule</title>
<path fill="none" stroke="#000000" d="M593,-122.0225C593,-139.3734 593,-163 593,-163 593,-163 909.144,-163 909.144,-163"/>
<polygon fill="#000000" stroke="#000000" points="909.144,-166.5001 919.144,-163 909.144,-159.5001 909.144,-166.5001"/>
</g>
<!-- SubjectService -->
<g id="node11" class="node">
<title>SubjectService</title>
<ellipse fill="#fdb462" stroke="#000000" cx="407" cy="-104" rx="68.9158" ry="18"/>
<text text-anchor="middle" x="407" y="-99.8" font-family="Times,serif" font-size="14.00" fill="#000000">SubjectService</text>
</g>
<!-- SubjectService&#45;&gt;AppModule -->
<g id="edge10" class="edge">
<title>SubjectService&#45;&gt;AppModule</title>
<path fill="none" stroke="#000000" d="M407,-122.1061C407,-141.3391 407,-169 407,-169 407,-169 908.9052,-169 908.9052,-169"/>
<polygon fill="#000000" stroke="#000000" points="908.9053,-172.5001 918.9052,-169 908.9052,-165.5001 908.9053,-172.5001"/>
</g>
<!-- UserService -->
<g id="node12" class="node">
<title>UserService</title>
<ellipse fill="#fdb462" stroke="#000000" cx="262" cy="-104" rx="58.4415" ry="18"/>
<text text-anchor="middle" x="262" y="-99.8" font-family="Times,serif" font-size="14.00" fill="#000000">UserService</text>
</g>
<!-- UserService&#45;&gt;AppModule -->
<g id="edge11" class="edge">
<title>UserService&#45;&gt;AppModule</title>
<path fill="none" stroke="#000000" d="M262,-122.2843C262,-143.3211 262,-175 262,-175 262,-175 909.1085,-175 909.1085,-175"/>
<polygon fill="#000000" stroke="#000000" points="909.1085,-178.5001 919.1085,-175 909.1084,-171.5001 909.1085,-178.5001"/>
</g>
<!-- ValidationService -->
<g id="node13" class="node">
<title>ValidationService</title>
<ellipse fill="#fdb462" stroke="#000000" cx="105" cy="-104" rx="80.5142" ry="18"/>
<text text-anchor="middle" x="105" y="-99.8" font-family="Times,serif" font-size="14.00" fill="#000000">ValidationService</text>
</g>
<!-- ValidationService&#45;&gt;AppModule -->
<g id="edge12" class="edge">
<title>ValidationService&#45;&gt;AppModule</title>
<path fill="none" stroke="#000000" d="M105,-122.2479C105,-145.0179 105,-181 105,-181 105,-181 909.1339,-181 909.1339,-181"/>
<polygon fill="#000000" stroke="#000000" points="909.1339,-184.5001 919.1339,-181 909.1338,-177.5001 909.1339,-184.5001"/>
</g>
</g>
</svg>
